<svg xmlns="http://www.w3.org/2000/svg" version="1.1" xmlns:xlink="http://www.w3.org/1999/xlink" xmlns:svgjs="http://svgjs.dev/svgjs" width="2000" height="1247" viewBox="0 0 2000 1247"><g transform="matrix(1,0,0,1,-1.2121212121212466,0.504858299595071)"><svg viewBox="0 0 396 247" data-background-color="#ffffff" preserveAspectRatio="xMidYMid meet" height="1247" width="2000" xmlns="http://www.w3.org/2000/svg" xmlns:xlink="http://www.w3.org/1999/xlink"><g id="tight-bounds" transform="matrix(1,0,0,1,0.2400000000000091,-0.09999999999999432)"><svg viewBox="0 0 395.52 247.2" height="247.2" width="395.52"><g><svg viewBox="0 0 395.52 247.2" height="247.2" width="395.52"><g><svg viewBox="0 0 395.52 247.2" height="247.2" width="395.52"><g><svg viewBox="0 0 395.52 247.2" height="247.2" width="395.52"><g><svg viewBox="0 0 395.52 247.2" height="247.2" width="395.52"><g><svg viewBox="0 0 395.52 247.2" height="247.2" width="395.52"><g transform="matrix(1,0,0,1,128.17479522213682,65.33440123022848)"><svg viewBox="0 0 139.17040955572637 116.53119753954303" height="116.53119753954303" width="139.17040955572637"><g><svg xmlns="http://www.w3.org/2000/svg" xmlns:xlink="http://www.w3.org/1999/xlink" version="1.1" x="0" y="0" viewBox="5.1 12.400000000000007 89.80955331759364 75.20000000000002" enable-background="new 0 0 100 100" xml:space="preserve" height="116.53119753954303" width="139.17040955572637" class="icon-n$-0" data-fill-palette-color="accent" id="n$-0"><path d="M93.5 71.7h-1l-7.8-36.5c-0.7-2.9-0.9-5.4-0.9-5.4v-1l2.6-1.2v-3.2h0c0-0.5-0.4-0.9-0.9-0.9-0.5 0-0.9 0.4-0.9 0.9h0v2.5c0 0-2.1 0-6.4 0 0 0-27.2-0.5-27.2-7.9l0-5.7c0 0 0 0 0 0 0-0.5-0.4-0.9-0.9-0.9 0 0 0 0 0 0s0 0 0 0c-0.5 0-0.9 0.4-0.9 0.9 0 0 0 0 0 0l0 5.7c0 7.3-27.2 7.9-27.2 7.9-4.3 0-6.4 0-6.4 0v-2.5h0c0-0.5-0.4-0.9-0.9-0.9-0.5 0-0.9 0.4-0.9 0.9h0v3.2l2.6 1.2v1c0 0-0.2 2.5-0.9 5.4L7.5 71.7h-1c-0.8 0-1.4 0.6-1.4 1.4 0 0.8 0.6 1.4 1.4 1.4h22.4c0.8 0 1.4-0.6 1.4-1.4 0-0.8-0.6-1.4-1.4-1.4H28l-8.4-37.5c-0.7-3-0.7-4.6-0.7-4.6v-0.8h29.3v47.6h0c-0.3 7.3-5.8 8.3-7.9 8.4h-3.1 0c-0.8 0-1.4 0.6-1.4 1.4 0 0.8 0.6 1.4 1.4 1.4h0 25.8 0c0.8 0 1.4-0.6 1.4-1.4 0-0.8-0.6-1.4-1.4-1.4h0-3.1c-2.1-0.1-7.6-1.1-7.9-8.4h0V28.8h29.3v0.8c0 0 0 1.6-0.7 4.6L72 71.7h-0.9c-0.8 0-1.4 0.6-1.4 1.4 0 0.8 0.6 1.4 1.4 1.4h22.4c0.8 0 1.4-0.6 1.4-1.4C95 72.4 94.3 71.7 93.5 71.7zM26.6 71.7H10.1l7.2-36.1c0 0 0.5-3.9 1.3 0.4L26.6 71.7zM73.4 71.7L81.4 36c0.8-4.3 1.3-0.4 1.3-0.4l7.2 36.1H73.4z" fill="#ffffff" data-fill-palette-color="accent"></path></svg></g></svg></g><path d="M87.49 173.415L94.485 165.107 93.743 162.967C93.634 162.651 93.675 162.361 93.866 162.097 94.051 161.835 94.358 161.63 94.788 161.481V161.481C95.728 161.155 96.333 161.381 96.602 162.157V162.157L97.73 165.414C97.966 166.096 98.328 166.508 98.816 166.65 99.305 166.798 99.781 166.793 100.241 166.633V166.633L103.83 165.39C104.291 165.231 104.668 164.941 104.96 164.521 105.256 164.108 105.285 163.561 105.049 162.879V162.879L103.016 157.009 84.884 163.289C83.994 163.598 83.359 163.206 82.981 162.114V162.114C82.603 161.022 82.859 160.321 83.749 160.013V160.013L103.017 153.339C103.686 153.107 104.19 153.123 104.529 153.388 104.87 153.658 105.124 154.034 105.29 154.513V154.513L108.091 162.599C108.259 163.085 108.332 163.622 108.31 164.21 108.287 164.797 108.201 165.386 108.051 165.975V165.975L108.042 165.946C107.856 166.555 107.525 167.087 107.046 167.542 106.574 167.996 105.966 168.351 105.221 168.609V168.609L101.168 170.013C99.666 170.534 98.368 170.421 97.276 169.675V169.675C97.061 169.524 96.847 169.354 96.633 169.166 96.428 168.983 96.217 168.791 95.999 168.591V168.591L90.202 175.583C90.134 175.67 90.033 175.768 89.902 175.878 89.776 175.985 89.666 176.055 89.571 176.088V176.088C89.123 176.243 88.588 176.075 87.965 175.583V175.583L87.994 175.574C87.586 175.234 87.331 174.916 87.228 174.619V174.619C87.082 174.196 87.175 173.782 87.508 173.377V173.377ZM98.234 192.502L112.105 176.998 91.766 181.322 91.792 181.307C91.477 181.35 91.189 181.332 90.927 181.252 90.667 181.163 90.463 180.991 90.316 180.737V180.737C90.236 180.598 90.17 180.458 90.12 180.318 90.069 180.177 90.023 180.03 89.981 179.877V179.877L89.996 179.903C89.74 178.755 90.076 178.082 91.004 177.884V177.884L112.017 173.484C112.335 173.408 112.649 173.423 112.958 173.53 113.266 173.637 113.522 173.825 113.724 174.094V174.094C113.943 174.353 114.143 174.611 114.323 174.87 114.509 175.125 114.646 175.327 114.733 175.478V175.478C114.82 175.628 114.928 175.848 115.056 176.136 115.19 176.421 115.323 176.718 115.456 177.028V177.028C115.558 177.285 115.567 177.592 115.481 177.951 115.395 178.309 115.275 178.61 115.123 178.853V178.853C112.755 181.496 110.368 184.162 107.964 186.849 105.569 189.539 103.187 192.206 100.819 194.849V194.849C100.176 195.538 99.425 195.494 98.567 194.717V194.717C98.455 194.604 98.356 194.5 98.269 194.403 98.182 194.307 98.099 194.189 98.019 194.05V194.05C97.881 193.813 97.834 193.551 97.876 193.264 97.928 192.98 98.056 192.721 98.26 192.487V192.487ZM101.604 185.62V185.62C101.06 185.935 100.487 186.012 99.885 185.851 99.283 185.69 98.824 185.338 98.51 184.794V184.794C98.195 184.251 98.122 183.684 98.289 183.093 98.454 182.496 98.807 182.041 99.351 181.726V181.726C99.894 181.412 100.466 181.332 101.065 181.487 101.661 181.636 102.116 181.983 102.43 182.526V182.526C102.745 183.07 102.821 183.643 102.661 184.245 102.5 184.848 102.148 185.306 101.604 185.62ZM122.622 192.191L107.795 204.419C107.074 205.014 106.339 204.858 105.591 203.951V203.951C104.851 203.055 104.842 202.309 105.563 201.714V201.714L120.39 189.485 117.119 185.519C116.669 184.973 116.815 184.368 117.557 183.704V183.704C118.314 183.079 118.931 183.055 119.407 183.632V183.632L128.187 194.277C128.659 194.849 128.503 195.432 127.72 196.026V196.026C126.952 196.659 126.345 196.705 125.899 196.164V196.164ZM127.707 216.836L138.291 204.954C138.918 204.251 139.662 204.283 140.525 205.052V205.052C141.388 205.821 141.506 206.557 140.88 207.26V207.26L127.377 222.419C126.919 222.933 126.314 223.065 125.562 222.815V222.815L125.584 222.835C125.261 222.726 124.94 222.584 124.623 222.408 124.31 222.237 124.029 222.04 123.779 221.818V221.818C123.59 221.649 123.408 221.452 123.234 221.225 123.061 221.008 122.92 220.78 122.811 220.54 122.698 220.296 122.626 220.035 122.596 219.757 122.566 219.48 122.599 219.201 122.696 218.921V218.921L128.521 202.786 127.862 202.32 117.292 214.187C116.665 214.891 115.913 214.851 115.035 214.069V214.069C114.172 213.301 114.054 212.565 114.68 211.861V211.861L128.163 196.724C128.701 196.121 129.325 195.952 130.036 196.219V196.219C130.684 196.456 131.279 196.816 131.823 197.301V197.301C132.202 197.638 132.518 198.058 132.769 198.559 133.02 199.06 133.059 199.614 132.886 200.22V200.22L127.026 216.35ZM144.245 233.626L148.54 213.271 133.064 227.159 133.079 227.133C132.828 227.327 132.569 227.455 132.302 227.517 132.032 227.569 131.77 227.522 131.516 227.375V227.375C131.377 227.294 131.251 227.206 131.137 227.109 131.023 227.012 130.909 226.908 130.797 226.797V226.797L130.823 226.812C130.028 225.943 129.984 225.192 130.69 224.559V224.559L146.711 210.269C146.949 210.044 147.229 209.901 147.55 209.839 147.871 209.778 148.186 209.814 148.495 209.946V209.946C148.814 210.062 149.117 210.186 149.402 210.32 149.69 210.449 149.91 210.556 150.06 210.643V210.643C150.21 210.73 150.413 210.867 150.668 211.053 150.927 211.233 151.19 211.424 151.459 211.626V211.626C151.676 211.798 151.837 212.061 151.941 212.414 152.045 212.768 152.092 213.088 152.08 213.374V213.374C151.346 216.846 150.606 220.347 149.862 223.875 149.126 227.401 148.391 230.9 147.656 234.372V234.372C147.442 235.29 146.769 235.626 145.638 235.381V235.381C145.485 235.338 145.346 235.297 145.223 235.257 145.1 235.216 144.969 235.156 144.83 235.076V235.076C144.593 234.939 144.421 234.735 144.315 234.465 144.218 234.193 144.199 233.904 144.26 233.6V233.6ZM143.736 225.981V225.981C143.421 226.524 142.963 226.877 142.36 227.037 141.758 227.198 141.185 227.122 140.641 226.807V226.807C140.098 226.493 139.751 226.038 139.602 225.442 139.447 224.843 139.527 224.272 139.841 223.728V223.728C140.155 223.185 140.611 222.831 141.207 222.666 141.798 222.499 142.365 222.572 142.909 222.887V222.887C143.453 223.201 143.805 223.659 143.966 224.262 144.127 224.864 144.05 225.437 143.735 225.981ZM173.819 243.989L172.678 223.217 161.342 240.649 161.35 240.62C161.157 240.873 160.94 241.063 160.698 241.192 160.452 241.313 160.186 241.335 159.902 241.259V241.259C159.748 241.218 159.603 241.165 159.468 241.101 159.332 241.038 159.196 240.967 159.058 240.888V240.888L159.087 240.896C158.094 240.264 157.857 239.55 158.374 238.755V238.755L170.132 220.793C170.303 220.514 170.536 220.303 170.83 220.16 171.124 220.018 171.438 219.97 171.771 220.018V220.018C172.109 220.046 172.433 220.088 172.743 220.143 173.055 220.192 173.295 220.239 173.463 220.284V220.284C173.631 220.329 173.862 220.408 174.156 220.522 174.453 220.629 174.757 220.745 175.069 220.87V220.87C175.324 220.979 175.547 221.191 175.739 221.506 175.932 221.82 176.06 222.117 176.123 222.397V222.397C176.316 225.94 176.511 229.513 176.709 233.113 176.915 236.709 177.115 240.279 177.307 243.823V243.823C177.338 244.765 176.776 245.264 175.62 245.321V245.321C175.461 245.32 175.317 245.316 175.187 245.309 175.058 245.302 174.915 245.278 174.761 245.237V245.237C174.496 245.166 174.277 245.014 174.105 244.781 173.94 244.543 173.847 244.269 173.827 243.96V243.96ZM171.34 236.738V236.738C171.178 237.345 170.827 237.804 170.287 238.116 169.747 238.428 169.174 238.503 168.567 238.34V238.34C167.961 238.178 167.508 237.829 167.209 237.292 166.904 236.754 166.832 236.182 166.994 235.575V235.575C167.157 234.968 167.505 234.508 168.038 234.195 168.565 233.879 169.132 233.803 169.738 233.965V233.965C170.345 234.128 170.804 234.479 171.116 235.019 171.428 235.558 171.503 236.132 171.34 236.738ZM187.813 233.22L193.468 233.768C193.974 233.817 194.488 233.977 195.012 234.25 195.537 234.515 196.038 234.849 196.516 235.251V235.251L196.486 235.248C196.957 235.65 197.3 236.166 197.514 236.797 197.728 237.429 197.797 238.134 197.721 238.912V238.912L197.333 242.921C197.18 244.504 196.54 245.633 195.414 246.309V246.309C194.866 246.632 194.316 246.87 193.764 247.025 193.205 247.179 192.673 247.231 192.168 247.182V247.182L185.785 246.564C185.273 246.514 184.758 246.36 184.239 246.102 183.727 245.844 183.233 245.504 182.757 245.082V245.082C181.782 244.202 181.371 242.971 181.525 241.389V241.389L181.712 239.454C181.801 238.536 182.421 238.133 183.571 238.245V238.245C184.741 238.358 185.282 238.874 185.193 239.791V239.791L185.028 241.497C184.979 242.002 185.081 242.475 185.333 242.916 185.586 243.35 186.075 243.602 186.8 243.672V243.672L191.717 244.149C192.442 244.219 192.97 244.065 193.302 243.688 193.635 243.304 193.825 242.86 193.874 242.354V242.354L194.218 238.814C194.265 238.322 194.163 237.852 193.911 237.405 193.659 236.957 193.171 236.699 192.446 236.628V236.628L186.801 236.081C185.784 235.983 184.773 235.509 183.768 234.66V234.66C182.796 233.74 182.385 232.509 182.535 230.966V230.966L182.872 227.486C182.948 226.701 183.151 226.026 183.481 225.461 183.812 224.889 184.248 224.441 184.789 224.118V224.118L184.759 224.115C185.304 223.832 185.859 223.611 186.425 223.451 186.99 223.291 187.529 223.236 188.041 223.285V223.285L194.424 223.904C194.93 223.953 195.445 224.11 195.969 224.376 196.494 224.641 196.996 224.965 197.476 225.347V225.347L197.446 225.344C197.915 225.766 198.257 226.289 198.472 226.914 198.687 227.532 198.756 228.233 198.68 229.018V229.018L198.513 230.743C198.424 231.661 197.795 232.063 196.624 231.949V231.949C195.474 231.838 194.943 231.323 195.032 230.406V230.406L195.175 228.94C195.222 228.454 195.119 227.991 194.866 227.551 194.614 227.11 194.125 226.855 193.4 226.785V226.785L188.483 226.308C187.758 226.238 187.23 226.395 186.897 226.778 186.565 227.162 186.375 227.597 186.328 228.082V228.082L186.038 231.074C185.989 231.58 186.091 232.046 186.345 232.473 186.599 232.901 187.088 233.149 187.813 233.22ZM207.571 233.321L213.231 232.819C213.736 232.774 214.272 232.838 214.837 233.009 215.401 233.173 215.955 233.409 216.499 233.717V233.717L216.469 233.719C217.006 234.027 217.438 234.472 217.764 235.053 218.091 235.634 218.289 236.314 218.358 237.093V237.093L218.713 241.105C218.854 242.689 218.433 243.917 217.45 244.788V244.788C216.971 245.206 216.474 245.542 215.96 245.796 215.44 246.05 214.926 246.199 214.421 246.244V246.244L208.033 246.81C207.52 246.856 206.985 246.799 206.428 246.641 205.878 246.482 205.33 246.238 204.784 245.911V245.911C203.664 245.226 203.033 244.091 202.893 242.508V242.508L202.721 240.571C202.64 239.653 203.175 239.143 204.326 239.041V239.041C205.497 238.937 206.123 239.344 206.205 240.263V240.263L206.356 241.969C206.401 242.475 206.588 242.921 206.917 243.308 207.246 243.688 207.773 243.846 208.498 243.781V243.781L213.419 243.345C214.145 243.281 214.636 243.033 214.892 242.601 215.149 242.162 215.254 241.69 215.209 241.185V241.185L214.895 237.641C214.852 237.149 214.665 236.706 214.335 236.313 214.005 235.919 213.477 235.755 212.752 235.819V235.819L207.103 236.32C206.085 236.41 205.004 236.131 203.86 235.481V235.481C202.736 234.756 202.105 233.621 201.968 232.077V232.077L201.66 228.594C201.59 227.809 201.665 227.108 201.886 226.491 202.106 225.868 202.452 225.348 202.924 224.931V224.931L202.894 224.933C203.377 224.555 203.882 224.235 204.409 223.974 204.936 223.713 205.455 223.56 205.968 223.514V223.514L212.356 222.948C212.861 222.903 213.396 222.963 213.961 223.127 214.525 223.292 215.079 223.518 215.62 223.805V223.805L215.591 223.808C216.129 224.136 216.562 224.587 216.888 225.162 217.213 225.73 217.41 226.406 217.48 227.192V227.192L217.633 228.918C217.714 229.837 217.169 230.348 215.998 230.451V230.451C214.847 230.553 214.231 230.145 214.149 229.227V229.227L214.019 227.76C213.976 227.274 213.79 226.838 213.461 226.451 213.131 226.065 212.604 225.903 211.879 225.968V225.968L206.958 226.404C206.233 226.468 205.742 226.72 205.486 227.158 205.23 227.597 205.123 228.059 205.166 228.545V228.545L205.432 231.539C205.476 232.045 205.663 232.484 205.991 232.857 206.319 233.231 206.846 233.385 207.571 233.321ZM223.597 220.448L229.771 218.715C230.26 218.577 230.797 218.538 231.382 218.595 231.968 218.653 232.553 218.773 233.138 218.956V218.956L233.109 218.964C233.699 219.187 234.207 219.551 234.634 220.056 235.058 220.554 235.377 221.183 235.59 221.941V221.941L239.365 235.39C239.795 236.921 239.607 238.205 238.803 239.243V239.243C238.408 239.742 237.982 240.163 237.524 240.507 237.059 240.853 236.582 241.094 236.093 241.231V241.231L229.919 242.965C229.423 243.104 228.89 243.146 228.32 243.091 227.743 243.038 227.156 242.901 226.56 242.68V242.68C225.967 242.444 225.459 242.083 225.039 241.598 224.62 241.119 224.298 240.48 224.074 239.683V239.683L220.299 226.234C220.086 225.475 220.031 224.773 220.134 224.126 220.235 223.473 220.479 222.898 220.867 222.401V222.401L220.848 222.406C221.246 221.947 221.68 221.541 222.15 221.187 222.619 220.833 223.102 220.587 223.597 220.448ZM229.818 239.902L234.575 238.567C235.276 238.37 235.713 238.036 235.885 237.564 236.056 237.086 236.073 236.602 235.936 236.113V236.113L232.293 223.138C232.161 222.668 231.898 222.274 231.503 221.954 231.108 221.635 230.56 221.574 229.859 221.771V221.771L225.103 223.106C224.402 223.303 223.966 223.64 223.795 224.118 223.624 224.597 223.604 225.07 223.736 225.54V225.54L227.379 238.516C227.516 239.004 227.782 239.408 228.177 239.728 228.57 240.041 229.117 240.099 229.818 239.902ZM257.598 224.323L258.456 226.067C259.158 227.494 259.208 228.791 258.606 229.958V229.958C258.31 230.521 257.967 231.013 257.579 231.435 257.185 231.86 256.76 232.184 256.305 232.408V232.408L250.551 235.24C250.089 235.467 249.573 235.605 249.002 235.656 248.425 235.709 247.823 235.681 247.197 235.572V235.572C246.57 235.449 246.006 235.187 245.503 234.786 245.004 234.392 244.571 233.823 244.205 233.08V233.08L238.038 220.547C237.69 219.839 237.508 219.158 237.491 218.504 237.471 217.844 237.607 217.234 237.897 216.674V216.674L237.879 216.683C238.187 216.159 238.54 215.68 238.937 215.246 239.334 214.813 239.763 214.482 240.225 214.255V214.255L245.979 211.424C246.435 211.2 246.955 211.063 247.541 211.013 248.127 210.962 248.724 210.974 249.333 211.046V211.046L249.306 211.06C249.927 211.171 250.493 211.436 251.004 211.855 251.513 212.267 251.941 212.827 252.289 213.534V213.534L253.182 215.35C253.598 216.196 253.279 216.878 252.224 217.397V217.397C251.187 217.907 250.46 217.74 250.045 216.895V216.895L249.266 215.312C249.051 214.875 248.72 214.535 248.273 214.293 247.826 214.051 247.277 214.091 246.623 214.412V214.412L242.191 216.594C241.537 216.915 241.17 217.326 241.089 217.828 241.009 218.329 241.076 218.799 241.291 219.236V219.236L247.242 231.329C247.466 231.784 247.801 232.133 248.248 232.375 248.691 232.611 249.24 232.568 249.893 232.247V232.247L254.326 230.065C254.979 229.744 255.347 229.336 255.431 228.84 255.512 228.339 255.441 227.86 255.216 227.405V227.405L254.46 225.867C254.053 225.04 254.368 224.371 255.405 223.861V223.861C256.46 223.342 257.191 223.496 257.598 224.323ZM255.987 206.744L267.476 224.158C267.994 224.944 267.763 225.661 266.782 226.308V226.308C265.817 226.945 265.075 226.87 264.557 226.083V226.083L253.068 208.67C252.549 207.883 252.772 207.172 253.737 206.536V206.536C254.718 205.888 255.468 205.958 255.987 206.744ZM283.049 211.234L265.017 200.86 273.444 219.87 273.424 219.848C273.531 220.147 273.572 220.433 273.548 220.706 273.515 220.978 273.389 221.213 273.17 221.409V221.409C273.051 221.517 272.928 221.609 272.801 221.688 272.674 221.766 272.539 221.842 272.398 221.915V221.915L272.421 221.895C271.349 222.382 270.622 222.192 270.237 221.324V221.324L261.596 201.672C261.456 201.376 261.406 201.066 261.447 200.742 261.488 200.417 261.619 200.129 261.841 199.876V199.876C262.049 199.608 262.261 199.359 262.477 199.129 262.688 198.894 262.858 198.719 262.987 198.603V198.603C263.116 198.487 263.309 198.336 263.564 198.151 263.816 197.961 264.079 197.769 264.354 197.575V197.575C264.585 197.422 264.884 197.351 265.253 197.361 265.621 197.371 265.94 197.426 266.209 197.525V197.525C269.284 199.297 272.384 201.082 275.51 202.88 278.636 204.668 281.737 206.448 284.812 208.22V208.22C285.619 208.708 285.731 209.452 285.148 210.452V210.452C285.06 210.584 284.978 210.703 284.902 210.808 284.825 210.912 284.727 211.018 284.608 211.126V211.126C284.405 211.309 284.158 211.409 283.869 211.427 283.58 211.435 283.3 211.364 283.028 211.212V211.212ZM275.62 209.357V209.357C276.04 209.824 276.233 210.368 276.2 210.991 276.167 211.614 275.917 212.135 275.45 212.555V212.555C274.983 212.975 274.443 213.163 273.831 213.121 273.213 213.084 272.694 212.832 272.274 212.365V212.365C271.855 211.898 271.659 211.355 271.687 210.737 271.71 210.123 271.955 209.607 272.422 209.187V209.187C272.889 208.767 273.434 208.573 274.056 208.607 274.679 208.64 275.2 208.89 275.62 209.357ZM277.708 187.436L292.736 199.417C293.468 200 293.467 200.751 292.734 201.67V201.67C292.009 202.579 291.281 202.742 290.55 202.159V202.159L275.522 190.179 272.318 194.198C271.876 194.752 271.254 194.734 270.451 194.145V194.145C269.683 193.533 269.532 192.934 269.999 192.349V192.349L278.6 181.56C279.062 180.98 279.665 181.012 280.407 181.656V181.656C281.186 182.276 281.356 182.861 280.919 183.409V183.409ZM306.077 180.988L300.616 190.262C300.246 190.889 299.836 191.217 299.385 191.246 298.933 191.275 298.515 191.176 298.129 190.949V190.949L281.042 180.885C280.651 180.655 280.364 180.339 280.182 179.937 280 179.535 280.094 179.02 280.464 178.393V178.393L285.655 169.577C286.025 168.95 286.643 168.868 287.509 169.332V169.332C288.387 169.803 288.621 170.386 288.211 171.083V171.083L283.838 178.508 298.87 187.361 303.513 179.478C303.882 178.851 304.487 178.772 305.326 179.243V179.243C306.227 179.728 306.477 180.309 306.077 180.988ZM294.759 176.195V176.195C295.352 176.544 295.731 177.046 295.895 177.702 296.054 178.353 295.959 178.976 295.61 179.568V179.568C295.271 180.144 294.781 180.515 294.141 180.68 293.492 180.848 292.871 180.758 292.278 180.409V180.409C291.691 180.063 291.313 179.565 291.145 178.916 290.979 178.276 291.066 177.668 291.405 177.092V177.092C291.754 176.499 292.252 176.114 292.899 175.937 293.552 175.763 294.172 175.849 294.759 176.195ZM297.81 165.578L299.862 160.28C300.045 159.807 300.339 159.355 300.742 158.923 301.139 158.49 301.596 158.097 302.112 157.745V157.745L302.101 157.773C302.614 157.428 303.204 157.237 303.87 157.201 304.535 157.165 305.233 157.289 305.962 157.571V157.571L309.718 159.026C311.2 159.6 312.116 160.52 312.463 161.787V161.787C312.626 162.401 312.708 162.995 312.708 163.568 312.706 164.148 312.613 164.674 312.43 165.148V165.148L310.114 171.128C309.928 171.608 309.641 172.062 309.252 172.492 308.866 172.916 308.406 173.3 307.871 173.644V173.644C306.761 174.346 305.465 174.41 303.982 173.836V173.836L302.169 173.134C301.31 172.801 301.089 172.096 301.506 171.018V171.018C301.931 169.922 302.573 169.54 303.432 169.873V169.873L305.03 170.492C305.504 170.675 305.986 170.704 306.479 170.58 306.965 170.453 307.34 170.05 307.603 169.371V169.371L309.387 164.764C309.65 164.085 309.644 163.535 309.37 163.114 309.09 162.69 308.713 162.387 308.24 162.203V162.203L304.923 160.919C304.462 160.74 303.982 160.712 303.484 160.834 302.985 160.956 302.604 161.357 302.341 162.036V162.036L300.293 167.325C299.924 168.278 299.195 169.124 298.106 169.863V169.863C296.959 170.55 295.663 170.614 294.218 170.054V170.054L290.957 168.791C290.221 168.507 289.626 168.129 289.171 167.659 288.709 167.187 288.395 166.646 288.23 166.038V166.038L288.219 166.066C288.093 165.465 288.03 164.871 288.028 164.283 288.027 163.695 288.119 163.161 288.305 162.682V162.682L290.621 156.701C290.804 156.228 291.094 155.774 291.491 155.341 291.888 154.907 292.336 154.511 292.833 154.152V154.152L292.822 154.18C293.354 153.842 293.95 153.653 294.61 153.615 295.263 153.574 295.957 153.696 296.692 153.981V153.981L298.309 154.607C299.168 154.94 299.386 155.655 298.961 156.751V156.751C298.544 157.829 297.906 158.201 297.046 157.868V157.868L295.672 157.336C295.218 157.16 294.744 157.134 294.252 157.259 293.759 157.383 293.382 157.785 293.119 158.464V158.464L291.335 163.071C291.072 163.75 291.08 164.301 291.36 164.725 291.64 165.148 292.008 165.448 292.462 165.624V165.624L295.266 166.71C295.739 166.893 296.216 166.92 296.696 166.791 297.176 166.662 297.547 166.258 297.81 165.579Z" fill="#ffffff" data-fill-palette-color="primary"></path><path d="M104.015 84.665L93.299 86.876 92.55 89.034C92.44 89.35 92.227 89.555 91.912 89.651 91.598 89.74 91.226 89.71 90.797 89.561V89.561C89.844 89.23 89.505 88.67 89.778 87.882V87.882L90.915 84.606C91.154 83.918 91.125 83.367 90.83 82.954 90.538 82.534 90.158 82.243 89.691 82.081V82.081L86.084 80.83C85.617 80.668 85.139 80.661 84.649 80.809 84.155 80.949 83.789 81.363 83.55 82.05V82.05L81.5 87.958 99.761 94.294C100.657 94.605 100.914 95.313 100.531 96.417V96.417C100.15 97.515 99.511 97.909 98.615 97.598V97.598L79.208 90.864C78.539 90.632 78.15 90.306 78.041 89.886 77.941 89.463 77.975 89.008 78.144 88.522V88.522L80.972 80.371C81.138 79.891 81.413 79.425 81.797 78.971 82.187 78.519 82.624 78.105 83.108 77.729V77.729L83.099 77.757C83.621 77.394 84.21 77.182 84.868 77.12 85.535 77.054 86.24 77.15 86.985 77.409V77.409L91.074 78.828C92.583 79.351 93.537 80.248 93.938 81.519V81.519C94.011 81.777 94.074 82.043 94.128 82.316 94.179 82.596 94.225 82.88 94.266 83.17V83.17L103.213 81.258C103.328 81.234 103.47 81.22 103.642 81.216 103.807 81.209 103.936 81.223 104.031 81.255V81.255C104.479 81.411 104.798 81.879 104.987 82.658V82.658L104.958 82.648C105.074 83.17 105.081 83.578 104.978 83.875V83.875C104.829 84.304 104.495 84.574 103.976 84.684V84.684ZM112.775 68.27L92.277 63.933 106.255 79.524 106.229 79.509C106.423 79.76 106.552 80.024 106.615 80.3 106.673 80.573 106.629 80.837 106.481 81.091V81.091C106.401 81.23 106.31 81.355 106.207 81.465 106.107 81.585 106.001 81.701 105.889 81.814V81.814L105.904 81.788C105.032 82.587 104.278 82.629 103.643 81.913V81.913L89.255 65.771C89.033 65.527 88.889 65.243 88.822 64.919 88.761 64.598 88.797 64.282 88.93 63.973V63.973C89.045 63.654 89.167 63.35 89.296 63.062 89.434 62.771 89.546 62.551 89.633 62.4V62.4C89.723 62.244 89.859 62.037 90.039 61.779 90.229 61.518 90.425 61.253 90.627 60.984V60.984C90.799 60.768 91.062 60.607 91.415 60.503 91.775 60.403 92.1 60.355 92.39 60.361V60.361C95.888 61.106 99.412 61.852 102.964 62.597 106.516 63.343 110.039 64.091 113.534 64.842V64.842C114.461 65.055 114.799 65.729 114.55 66.866V66.866C114.504 67.025 114.461 67.166 114.421 67.289 114.386 67.416 114.328 67.549 114.248 67.687V67.687C114.111 67.924 113.904 68.094 113.628 68.197 113.347 68.296 113.054 68.316 112.749 68.255V68.255ZM105.08 68.78V68.78C105.629 69.098 105.984 69.558 106.144 70.161 106.307 70.772 106.231 71.35 105.916 71.893V71.893C105.598 72.442 105.137 72.792 104.532 72.944 103.933 73.098 103.358 73.017 102.809 72.698V72.698C102.266 72.384 101.91 71.926 101.74 71.326 101.57 70.726 101.645 70.151 101.963 69.602V69.602C102.278 69.059 102.741 68.706 103.352 68.543 103.961 68.386 104.537 68.465 105.08 68.78ZM105.084 45.746L120.011 58.074C120.743 58.678 120.732 59.436 119.979 60.347V60.347C119.235 61.249 118.497 61.397 117.765 60.793V60.793L102.838 48.466 99.539 52.461C99.084 53.012 98.458 52.984 97.659 52.377V52.377C96.897 51.747 96.756 51.141 97.237 50.559V50.559L106.087 39.843C106.563 39.266 107.17 39.308 107.907 39.968V39.968C108.679 40.606 108.84 41.198 108.389 41.744V41.744ZM131.579 39.898L120.92 27.922C120.29 27.213 120.409 26.472 121.277 25.7V25.7C122.15 24.922 122.902 24.888 123.533 25.597V25.597L137.129 40.874C137.586 41.388 137.645 42.007 137.305 42.73V42.73L137.327 42.71C137.186 43.023 137.01 43.328 136.799 43.623 136.587 43.918 136.355 44.179 136.1 44.406V44.406C135.91 44.575 135.693 44.732 135.448 44.879 135.212 45.026 134.967 45.142 134.711 45.226 134.451 45.306 134.181 45.344 133.902 45.342 133.623 45.34 133.348 45.277 133.076 45.152V45.152L117.612 37.452 117.08 38.046 127.719 50C128.349 50.709 128.22 51.458 127.332 52.249V52.249C126.464 53.022 125.714 53.054 125.084 52.345V52.345L111.508 37.09C110.97 36.486 110.873 35.844 111.215 35.164V35.164C111.536 34.539 111.968 33.984 112.512 33.5V33.5C112.896 33.158 113.351 32.891 113.878 32.7 114.41 32.504 114.969 32.529 115.556 32.776V32.776L131.018 40.518ZM152.69 33.326L137.084 19.347 141.428 39.831 141.413 39.805C141.456 40.119 141.436 40.412 141.353 40.684 141.268 40.949 141.097 41.155 140.843 41.302V41.302C140.704 41.383 140.563 41.445 140.419 41.49 140.272 41.543 140.123 41.591 139.97 41.633V41.633L139.996 41.618C138.841 41.876 138.166 41.537 137.972 40.6V40.6L133.547 19.434C133.476 19.112 133.493 18.794 133.597 18.479 133.704 18.171 133.892 17.915 134.161 17.714V17.714C134.421 17.495 134.678 17.292 134.933 17.106 135.197 16.923 135.405 16.787 135.555 16.7V16.7C135.711 16.61 135.932 16.498 136.217 16.364 136.512 16.233 136.813 16.101 137.123 15.969V15.969C137.38 15.866 137.688 15.858 138.046 15.944 138.408 16.036 138.713 16.157 138.961 16.307V16.307C141.622 18.697 144.306 21.1 147.014 23.517 149.721 25.934 152.402 28.339 155.057 30.732V30.732C155.755 31.378 155.712 32.132 154.929 32.993V32.993C154.81 33.108 154.702 33.209 154.606 33.296 154.512 33.388 154.396 33.474 154.258 33.554V33.554C154.02 33.691 153.757 33.736 153.466 33.687 153.173 33.633 152.909 33.504 152.675 33.3V33.3ZM145.766 29.931V29.931C146.083 30.48 146.161 31.056 146 31.659 145.836 32.27 145.482 32.733 144.939 33.047V33.047C144.389 33.364 143.814 33.438 143.214 33.267 142.618 33.103 142.161 32.746 141.844 32.196V32.196C141.53 31.652 141.449 31.078 141.601 30.473 141.753 29.869 142.104 29.408 142.653 29.09V29.09C143.197 28.776 143.775 28.701 144.386 28.865 144.992 29.032 145.452 29.387 145.766 29.931ZM178.14 24.691L166.69 7.145 165.576 28.055 165.568 28.026C165.528 28.341 165.433 28.619 165.283 28.859 165.131 29.093 164.913 29.249 164.63 29.325V29.325C164.475 29.366 164.322 29.39 164.171 29.395 164.016 29.409 163.859 29.417 163.7 29.418V29.418L163.729 29.41C162.547 29.36 161.984 28.857 162.039 27.902V27.902L163.251 6.312C163.267 5.983 163.365 5.68 163.547 5.403 163.731 5.133 163.979 4.935 164.291 4.81V4.81C164.598 4.666 164.899 4.537 165.193 4.423 165.496 4.315 165.732 4.238 165.899 4.193V4.193C166.074 4.146 166.316 4.095 166.626 4.04 166.944 3.989 167.27 3.94 167.603 3.892V3.892C167.878 3.86 168.177 3.932 168.501 4.108 168.827 4.291 169.09 4.487 169.291 4.696V4.696C171.242 7.693 173.211 10.71 175.199 13.746 177.188 16.782 179.154 19.8 181.098 22.8V22.8C181.604 23.605 181.367 24.322 180.388 24.951V24.951C180.243 25.031 180.113 25.1 179.997 25.159 179.883 25.224 179.749 25.277 179.594 25.319V25.319C179.329 25.389 179.063 25.364 178.796 25.242 178.526 25.113 178.305 24.92 178.132 24.662V24.662ZM172.332 19.618V19.618C172.496 20.231 172.422 20.807 172.11 21.347 171.793 21.895 171.332 22.251 170.725 22.413V22.413C170.112 22.577 169.538 22.499 169.003 22.179 168.469 21.865 168.121 21.402 167.956 20.789V20.789C167.794 20.182 167.865 19.607 168.168 19.062 168.472 18.518 168.93 18.163 169.544 17.999V17.999C170.15 17.837 170.727 17.914 171.276 18.23 171.817 18.549 172.169 19.011 172.332 19.618ZM186.888 10.503L192.573 9.951C193.085 9.902 193.627 9.96 194.201 10.126 194.773 10.285 195.333 10.519 195.88 10.829V10.829L195.85 10.832C196.396 11.134 196.835 11.578 197.167 12.164 197.505 12.742 197.712 13.426 197.789 14.217V14.217L198.18 18.257C198.335 19.846 197.918 21.088 196.931 21.982V21.982C196.455 22.404 195.958 22.744 195.439 23.003 194.914 23.262 194.395 23.416 193.883 23.466V23.466L187.461 24.088C186.949 24.138 186.413 24.086 185.855 23.932 185.29 23.779 184.733 23.541 184.185 23.218V23.218C183.051 22.529 182.407 21.39 182.253 19.801V19.801L182.064 17.857C181.975 16.932 182.508 16.414 183.665 16.302V16.302C184.849 16.187 185.485 16.592 185.575 17.516V17.516L185.74 19.222C185.79 19.734 185.981 20.181 186.314 20.565 186.646 20.949 187.178 21.106 187.909 21.035V21.035L192.866 20.554C193.591 20.484 194.08 20.228 194.332 19.788 194.591 19.346 194.696 18.87 194.647 18.358V18.358L194.3 14.787C194.253 14.295 194.059 13.854 193.719 13.464 193.385 13.067 192.856 12.904 192.131 12.974V12.974L186.436 13.526C185.412 13.626 184.322 13.356 183.166 12.716V12.716C182.029 11.994 181.385 10.855 181.234 9.299V9.299L180.894 5.789C180.818 5.004 180.887 4.296 181.101 3.664 181.315 3.04 181.66 2.516 182.136 2.094V2.094L182.106 2.097C182.586 1.715 183.091 1.387 183.622 1.114 184.153 0.848 184.675 0.69 185.187 0.641V0.641L191.61 0.018C192.122-0.032 192.664 0.023 193.236 0.182 193.81 0.348 194.368 0.572 194.912 0.855V0.855L194.882 0.858C195.431 1.181 195.87 1.628 196.201 2.2 196.539 2.778 196.746 3.459 196.822 4.244V4.244L196.99 5.979C197.08 6.904 196.533 7.423 195.349 7.538V7.538C194.192 7.65 193.569 7.244 193.479 6.32V6.32L193.337 4.854C193.289 4.362 193.096 3.924 192.757 3.541 192.423 3.15 191.895 2.99 191.17 3.06V3.06L186.213 3.541C185.482 3.612 184.99 3.871 184.738 4.318 184.485 4.759 184.383 5.225 184.431 5.717V5.717L184.722 8.719C184.771 9.231 184.962 9.676 185.294 10.053 185.625 10.424 186.157 10.574 186.888 10.503ZM208.275 10.394L213.965 10.899C214.477 10.944 215 11.101 215.532 11.37 216.066 11.632 216.573 11.965 217.053 12.37V12.37L217.023 12.367C217.504 12.765 217.854 13.282 218.073 13.919 218.299 14.549 218.376 15.26 218.306 16.052V16.052L217.948 20.094C217.807 21.685 217.169 22.829 216.034 23.526V23.526C215.488 23.853 214.937 24.096 214.38 24.255 213.816 24.412 213.278 24.469 212.765 24.423V24.423L206.338 23.853C205.825 23.808 205.309 23.658 204.788 23.404 204.261 23.149 203.757 22.813 203.278 22.395V22.395C202.29 21.509 201.867 20.271 202.008 18.681V18.681L202.18 16.735C202.262 15.81 202.882 15.399 204.04 15.501V15.501C205.224 15.606 205.776 16.121 205.694 17.046V17.046L205.542 18.753C205.497 19.265 205.602 19.741 205.859 20.179 206.115 20.618 206.609 20.87 207.341 20.934V20.934L212.301 21.374C213.027 21.439 213.554 21.277 213.883 20.891 214.219 20.505 214.41 20.056 214.456 19.543V19.543L214.772 15.97C214.816 15.478 214.707 15.009 214.444 14.563 214.189 14.111 213.699 13.853 212.974 13.789V13.789L207.275 13.283C206.25 13.192 205.228 12.726 204.21 11.885V11.885C203.225 10.966 202.802 9.728 202.94 8.171V8.171L203.251 4.658C203.321 3.872 203.519 3.189 203.845 2.608 204.171 2.033 204.607 1.582 205.152 1.255V1.255L205.122 1.252C205.664 0.965 206.221 0.736 206.793 0.565 207.364 0.401 207.906 0.342 208.418 0.388V0.388L214.846 0.958C215.358 1.003 215.881 1.157 216.415 1.419 216.947 1.687 217.455 2.01 217.938 2.389V2.389L217.908 2.386C218.388 2.804 218.737 3.325 218.957 3.948 219.183 4.578 219.261 5.286 219.191 6.071V6.071L219.037 7.808C218.955 8.732 218.322 9.142 217.137 9.037V9.037C215.98 8.935 215.442 8.421 215.524 7.496V7.496L215.654 6.029C215.697 5.536 215.588 5.071 215.325 4.632 215.069 4.186 214.579 3.932 213.854 3.867V3.867L208.893 3.427C208.161 3.363 207.63 3.527 207.3 3.92 206.971 4.307 206.784 4.746 206.741 5.239V5.239L206.474 8.243C206.429 8.755 206.534 9.227 206.791 9.659 207.049 10.084 207.543 10.329 208.275 10.394ZM231.273 4.41L237.496 6.157C237.984 6.295 238.467 6.541 238.943 6.897 239.417 7.259 239.856 7.67 240.261 8.131V8.131L240.232 8.123C240.627 8.622 240.874 9.198 240.975 9.851 241.081 10.512 241.027 11.222 240.814 11.981V11.981L237.008 25.535C236.576 27.073 235.738 28.079 234.494 28.556V28.556C233.898 28.777 233.311 28.914 232.734 28.967 232.151 29.018 231.615 28.975 231.126 28.838V28.838L224.904 27.09C224.408 26.951 223.928 26.709 223.463 26.363 222.992 26.016 222.559 25.592 222.165 25.093V25.093C221.776 24.575 221.53 23.995 221.425 23.355 221.318 22.722 221.377 22.006 221.601 21.209V21.209L225.408 7.654C225.621 6.896 225.942 6.26 226.37 5.749 226.796 5.244 227.307 4.882 227.903 4.66V4.66L227.875 4.652C228.46 4.47 229.05 4.347 229.643 4.285 230.235 4.229 230.778 4.271 231.273 4.41ZM226.427 24.406L231.222 25.753C231.923 25.95 232.471 25.889 232.866 25.569 233.267 25.252 233.538 24.845 233.677 24.35V24.35L237.345 11.288C237.479 10.812 237.457 10.334 237.28 9.854 237.11 9.369 236.675 9.029 235.974 8.832V8.832L231.18 7.485C230.472 7.287 229.92 7.35 229.523 7.676 229.128 7.995 228.864 8.393 228.73 8.869V8.869L225.062 21.931C224.923 22.426 224.939 22.913 225.11 23.391 225.281 23.869 225.72 24.208 226.428 24.406ZM255.458 32.549L254.595 34.302C253.89 35.734 252.883 36.571 251.573 36.812V36.812C250.946 36.921 250.344 36.948 249.767 36.895 249.184 36.839 248.665 36.699 248.209 36.475V36.475L242.411 33.62C241.949 33.393 241.522 33.067 241.128 32.642 240.728 32.214 240.379 31.719 240.083 31.156V31.156C239.796 30.576 239.659 29.961 239.673 29.313 239.684 28.67 239.872 27.977 240.238 27.234V27.234L246.456 14.603C246.804 13.896 247.235 13.33 247.75 12.906 248.261 12.487 248.83 12.224 249.456 12.115V12.115L249.429 12.102C250.038 12.03 250.64 12.017 251.235 12.064 251.827 12.117 252.354 12.257 252.815 12.484V12.484L258.614 15.339C259.069 15.563 259.499 15.894 259.902 16.33 260.302 16.773 260.659 17.258 260.973 17.784V17.784L260.946 17.771C261.242 18.334 261.38 18.946 261.361 19.606 261.344 20.275 261.161 20.963 260.813 21.671V21.671L259.91 23.505C259.491 24.356 258.749 24.519 257.682 23.994V23.994C256.639 23.48 256.327 22.798 256.746 21.947V21.947L257.529 20.356C257.747 19.912 257.813 19.438 257.726 18.934 257.649 18.426 257.283 18.012 256.63 17.69V17.69L252.162 15.491C251.502 15.166 250.948 15.128 250.498 15.376 250.052 15.618 249.719 15.96 249.501 16.404V16.404L243.509 28.576C243.282 29.038 243.208 29.519 243.289 30.021 243.37 30.522 243.74 30.935 244.399 31.26V31.26L248.867 33.459C249.521 33.781 250.071 33.821 250.517 33.579 250.97 33.34 251.31 32.99 251.537 32.528V32.528L252.294 30.991C252.704 30.158 253.43 29.998 254.473 30.511V30.511C255.54 31.037 255.868 31.716 255.458 32.549ZM270.305 23.897L258.736 41.438C258.214 42.23 257.46 42.301 256.473 41.65V41.65C255.497 41.006 255.27 40.288 255.792 39.496V39.496L267.36 21.955C267.882 21.163 268.632 21.089 269.607 21.732V21.732C270.595 22.383 270.827 23.105 270.305 23.897ZM271.742 53.722L280.194 34.551 262.066 45.031 262.086 45.008C261.8 45.146 261.515 45.219 261.232 45.224 260.953 45.225 260.704 45.127 260.485 44.931V44.931C260.366 44.824 260.263 44.709 260.176 44.585 260.079 44.463 259.987 44.335 259.9 44.203V44.203L259.922 44.223C259.319 43.205 259.433 42.459 260.263 41.984V41.984L279.015 31.215C279.299 31.049 279.607 30.966 279.938 30.967 280.265 30.973 280.566 31.073 280.841 31.266V31.266C281.13 31.445 281.402 31.627 281.658 31.812 281.914 32.006 282.107 32.161 282.236 32.277V32.277C282.371 32.398 282.546 32.573 282.761 32.803 282.977 33.042 283.196 33.288 283.418 33.541V33.541C283.595 33.754 283.698 34.044 283.727 34.411 283.752 34.784 283.732 35.111 283.666 35.394V35.394C282.219 38.664 280.766 41.961 279.308 45.284 277.849 48.608 276.394 51.902 274.941 55.168V55.168C274.543 56.032 273.813 56.225 272.751 55.747V55.747C272.605 55.67 272.476 55.599 272.364 55.534 272.247 55.474 272.129 55.39 272.01 55.283V55.283C271.806 55.1 271.682 54.863 271.638 54.572 271.599 54.276 271.64 53.985 271.762 53.7V53.7ZM272.823 46.086V46.086C272.399 46.558 271.875 46.811 271.253 46.844 270.62 46.878 270.071 46.685 269.604 46.266V46.266C269.132 45.842 268.884 45.318 268.86 44.695 268.831 44.077 269.029 43.532 269.453 43.059V43.059C269.873 42.592 270.394 42.337 271.016 42.294 271.638 42.252 272.185 42.442 272.657 42.866V42.866C273.124 43.286 273.375 43.812 273.409 44.444 273.438 45.072 273.242 45.619 272.823 46.086ZM295.364 50.822L280.232 62.897C279.491 63.488 278.751 63.322 278.014 62.398V62.398C277.285 61.484 277.291 60.731 278.032 60.14V60.14L293.164 48.065 289.933 44.015C289.487 43.457 289.643 42.849 290.401 42.193V42.193C291.174 41.576 291.796 41.563 292.267 42.153V42.153L300.936 53.016C301.402 53.601 301.237 54.186 300.439 54.772V54.772C299.656 55.397 299.043 55.432 298.602 54.879V54.879ZM290.249 80.726L284.74 71.388C284.366 70.755 284.276 70.234 284.469 69.825 284.663 69.417 284.955 69.097 285.346 68.866V68.866L302.555 58.714C302.946 58.483 303.365 58.383 303.81 58.415 304.25 58.451 304.656 58.785 305.03 59.418V59.418L310.269 68.298C310.642 68.931 310.412 69.513 309.577 70.044V70.044C308.734 70.588 308.108 70.512 307.697 69.816V69.816L303.288 62.342 288.15 71.272 292.829 79.203C293.202 79.836 292.977 80.408 292.153 80.917V80.917C291.287 81.474 290.652 81.411 290.249 80.726ZM299.987 73.096V73.096C299.395 73.445 298.77 73.531 298.114 73.352 297.461 73.178 296.958 72.793 296.605 72.194V72.194C296.266 71.619 296.18 71.006 296.347 70.357 296.515 69.707 296.895 69.208 297.487 68.858V68.858C298.086 68.505 298.71 68.412 299.359 68.58 300.009 68.747 300.503 69.119 300.843 69.694V69.694C301.196 70.293 301.29 70.919 301.126 71.575 300.965 72.236 300.586 72.743 299.987 73.096ZM305.883 83.619L307.95 88.944C308.136 89.423 308.227 89.961 308.222 90.558 308.223 91.152 308.149 91.754 307.999 92.365V92.365L307.988 92.336C307.844 92.944 307.535 93.487 307.061 93.965 306.596 94.446 305.993 94.831 305.252 95.118V95.118L301.469 96.587C299.98 97.165 298.672 97.099 297.544 96.391V96.391C297.01 96.047 296.548 95.66 296.159 95.23 295.767 94.795 295.479 94.337 295.293 93.858V93.858L292.957 87.842C292.771 87.362 292.677 86.833 292.674 86.254 292.669 85.668 292.747 85.068 292.91 84.453V84.453C293.267 83.175 294.189 82.247 295.677 81.669V81.669L297.499 80.962C298.365 80.626 299.008 81 299.428 82.083V82.083C299.859 83.192 299.641 83.914 298.775 84.25V84.25L297.178 84.87C296.699 85.057 296.319 85.362 296.039 85.785 295.76 86.209 295.753 86.764 296.019 87.449V87.449L297.821 92.091C298.084 92.77 298.462 93.172 298.955 93.296 299.45 93.426 299.937 93.398 300.416 93.212V93.212L303.761 91.914C304.221 91.735 304.594 91.429 304.877 90.997 305.169 90.568 305.184 90.014 304.92 89.335V89.335L302.85 84.002C302.477 83.043 302.443 81.92 302.746 80.634V80.634C303.134 79.344 304.056 78.416 305.514 77.851V77.851L308.802 76.574C309.537 76.289 310.237 76.164 310.903 76.199 311.562 76.237 312.16 76.428 312.694 76.772V76.772L312.684 76.744C313.181 77.103 313.633 77.501 314.039 77.938 314.439 78.377 314.732 78.837 314.918 79.316V79.316L317.254 85.332C317.44 85.812 317.534 86.348 317.535 86.943 317.53 87.539 317.465 88.138 317.34 88.738V88.738L317.329 88.71C317.166 89.325 316.854 89.869 316.393 90.342 315.928 90.823 315.328 91.207 314.593 91.492V91.492L312.968 92.123C312.102 92.459 311.454 92.073 311.024 90.964V90.964C310.603 89.881 310.826 89.171 311.691 88.835V88.835L313.064 88.302C313.525 88.123 313.894 87.818 314.172 87.388 314.458 86.962 314.469 86.41 314.205 85.731V85.731L312.403 81.088C312.137 80.403 311.755 80 311.256 79.878 310.764 79.754 310.287 79.781 309.826 79.96V79.96L307.014 81.052C306.535 81.238 306.158 81.542 305.885 81.963 305.618 82.382 305.617 82.934 305.883 83.619Z" fill="#ffffff" data-fill-palette-color="primary"></path><path d="M77.245 126.226C77.245 121.23 81.295 117.18 86.292 117.18 91.288 117.18 95.338 121.23 95.338 126.226 95.338 131.223 91.288 135.273 86.292 135.273 81.295 135.273 77.245 131.223 77.245 126.226ZM300.182 126.226C300.182 121.23 304.232 117.18 309.228 117.18 314.225 117.18 318.275 121.23 318.275 126.226 318.275 131.223 314.225 135.273 309.228 135.273 304.232 135.273 300.182 131.223 300.182 126.226Z" fill="#ffffff" data-fill-palette-color="primary"></path></svg></g></svg></g></svg></g></svg></g></svg></g><defs></defs></svg><rect width="395.52" height="247.2" fill="none" stroke="none" visibility="hidden"></rect></g></svg></g></svg>